<?xml version="1.0" encoding="utf-8"?>
<!-- Generator: Adobe Illustrator 25.2.0, SVG Export Plug-In . SVG Version: 6.00 Build 0)  -->
<svg version="1.1" id="Camada_1" xmlns="http://www.w3.org/2000/svg" xmlns:xlink="http://www.w3.org/1999/xlink" x="0px" y="0px"
	 viewBox="0 0 144 144" style="enable-background:new 0 0 144 144;" xml:space="preserve">
<style type="text/css">
	.st0{fill:#FCC903;}
</style>
<path class="st0" d="M66.87,99.41c-4.78-7.49-9.2-14.94-11.62-23.44c-0.98-3.46-1.91-6.92-2.6-10.44c-0.19-0.96-0.63-2.33,0.44-2.71
	c0.98-0.35,1.63,0.86,2.19,1.74c1.47,2.29,3.37,4.26,5.32,6.13c1.04,1,1.89,2.14,2.89,3.16c3.55,3.59,7.19,7.07,11.18,10.18
	c5.17,4.02,10.95,6.83,17.4,7.86c5.3,0.85,10.21-0.31,14.31-4.17c5.21-4.9,7.54-11.02,8.24-17.96c0.61-6.12,0.14-12.15-1.9-17.93
	c-2.18-6.18-5.82-11.6-10.18-16.44c-1.6-1.77-3.82-3-5.81-4.4c-4.82-3.38-10.21-5.47-15.97-6.44c-5.2-0.87-10.48-1.05-15.77-1.03
	c-1.07,0-2.66,0.37-2.96-0.86c-0.25-1.05,1.27-1.57,2.18-1.99c8.29-3.84,16.88-5.75,26.07-4.25c6.46,1.05,12.34,3.39,17.64,7.24
	c0.26,0.19,0.55,0.34,0.85,0.44c0.4,0.14,0.93,0.27,1.2-0.08c0.35-0.46-0.19-0.78-0.47-1.03c-1.96-1.77-3.77-3.66-5.89-5.3
	c-2.64-2.03-5.65-3.34-8.32-5.24c-0.96-0.69-2.08-1.07-3.2-1.44c-0.57-0.19-1.16-0.49-1.04-1.2c0.12-0.68,0.77-0.6,1.3-0.64
	c1.3-0.08,2.58,0.13,3.78,0.52c4.72,1.5,9.46,2.93,13.9,5.19c6.02,3.07,11.36,6.95,15.9,12.03c3.42,3.82,6.64,7.78,9.32,12.12
	c3.73,6.04,6.29,12.6,7.34,19.66c0.98,6.62,1.08,13.26,0.43,19.93c-0.76,7.85-2.57,15.41-5.91,22.58
	c-3.39,7.27-7.33,14.15-12.95,19.99c-2.55,2.65-5,5.46-8.03,7.51c-2.64,1.79-5.01,4.13-7.91,5.33c-6.25,2.58-12.31,5.73-19.26,6.46
	c-5.71,0.6-11.39,0.75-17.06,0.2c-2.97-0.29-5.93-1.16-8.87-1.84c-4.4-1.01-8.53-2.71-12.61-4.43c-3.19-1.34-6.34-2.92-9.34-4.76
	c-3.03-1.86-6.2-3.51-9-5.7c-3.63-2.84-7.63-5.23-10.87-8.57c-0.99-1.02-2.37-1.62-3.35-2.69c-0.29-0.31-0.63-0.64-1.1-0.27
	c-0.47,0.37-0.2,0.83-0.01,1.15c0.96,1.65,1.83,3.37,2.98,4.88c3.77,4.95,8.44,8.9,13.63,12.32c2.48,1.63,5.2,2.85,7.52,4.72
	c0.33,0.27,1.01,0.42,0.73,1.06c-0.25,0.56-0.84,0.33-1.29,0.34c-1.22,0.03-2.28-0.49-3.32-1.03c-4.96-2.57-9.84-5.26-14.16-8.83
	c-2.91-2.41-5.43-5.23-7.86-8.12c-3.35-3.98-5.93-8.49-7.94-13.23c-1.95-4.58-3.51-9.32-4.47-14.27
	c-1.03-5.32-1.54-10.68-1.53-16.03c0.01-6.43,0.5-12.86,1.91-19.2c1.62-7.31,3.88-14.39,7.22-21.07c2.27-4.55,5.08-8.78,8.06-12.92
	c4.12-5.71,9.05-10.59,14.51-14.95c1.81-1.44,3.61-2.98,5.86-3.81c0.54-0.2,1.02-0.72,1.58-0.17c0.55,0.55,0.38,1.25,0.06,1.78
	c-0.9,1.5-1.83,2.99-2.86,4.4c-2.54,3.48-4.4,7.3-6.11,11.25c-1.76,4.07-2.85,8.32-3.98,12.56c-0.08,0.31-0.25,0.62-0.22,0.92
	c0.06,0.74-0.46,1.66,0.51,2.16c1.13,0.58,1.26-0.61,1.79-1.09c4.81-4.33,8.99-9.29,14.07-13.38c4.05-3.26,8.32-6.07,12.83-8.55
	c2.41-1.33,4.96-2.48,7.79-2.7c0.45-0.03,1.03-0.19,1.29,0.36c0.29,0.62-0.38,0.77-0.67,1.1c-0.95,1.13-2.34,1.59-3.52,2.38
	c-1.84,1.23-3.59,2.6-5.35,3.95c-2.44,1.88-4.8,3.89-6.69,6.31c-1.33,1.7-2.95,3.19-3.92,5.18c-0.24,0.48-0.74,0.89-1.22,1.18
	c-1.52,0.93-1.11,2.75-1.96,4.04c-1.14,1.71-1.9,3.68-2.72,5.58c-0.75,1.75-0.38,2.33,1.52,2.79c0.9,0.22,1.84,0.32,2.67-0.05
	c1.08-0.48,2.19-0.43,3.3-0.43c1.61,0,2.37,1.25,1.35,2.54c-3.45,4.35-3.85,9.75-5.09,14.8c-0.99,3.99-0.63,8.21,0.12,12.24
	c0.67,3.61,2.73,6.76,4.56,9.93c1.34,2.32,2.95,4.52,4.84,6.29c3.59,3.36,6.81,7.19,11.28,9.54C66.05,99.49,66.02,99.55,66.87,99.41
	z M25.67,69.89c-0.03,0.31-0.06,0.62-0.08,0.93c-0.26,4.91,0.48,9.67,1.82,14.41c1.1,3.92,2.5,7.66,4.36,11.28
	c2.01,3.91,4.68,7.27,7.6,10.51c1.06,1.18,2.41,2,3.38,3.25c1,1.29,1.99,1.62,3.03,1.3c-5.89-5.36-9.82-12.07-13.18-19.09
	C29.18,85.35,26.67,77.88,25.67,69.89z M97.97,112.51c1.23,0.06,2.74-0.14,4.26-0.47c2.37-0.51,4.15-2.08,6.22-3.13
	c1.6-0.81,3.33-1.46,4.49-2.92c0.29-0.37,1.21-0.46,0.78-1.15c-0.39-0.61-1.05-0.29-1.58-0.02c-2.31,1.16-4.58,2.4-6.94,3.45
	c-1.57,0.7-3.22,1.37-4.9,1.63c-3.19,0.48-6.42,0.63-9.67,0.41c-0.47-0.03-1.34-0.41-1.41,0.46c-0.05,0.69,0.55,1.02,1.29,1.13
	C92.89,112.22,95.26,112.51,97.97,112.51z"/>
</svg>
